# xmcd
#
# Track frame offsets:
#	150
#	13463
#	26887
#	38172
#	52334
#	68307
#	77001
#	87326
#	101940
#	112632
#	124637
#	137512
#	149572
#	165341
#	176742
#	187220
#	203712
#	220257
#	229844
#	241654
#	257129
#	269937
#	282912
#	294299
#	305374
#	315378
#	325385
#	337008
#
# Disc length: 4658 seconds
#
# Revision: 0
# Processed by: cddbd v1.4PL0 Copyright (c) Steve Scherf et al.
# Submitted via: audiograbber 1.80
#
DISCID=a612301c
DTITLE=dick curless - Hard, Hard Traveling Man disc 2
DYEAR=1900
DGENRE=
TTITLE0=Woman, Don't Try To Sing My Song 
TTITLE1=I Gave Up Getting Over You Today 
TTITLE2=Loser's Cocktail 
TTITLE3=Old Ramblin' Alabama Me 
TTITLE4=Sweeter Than The Honey 
TTITLE5=Hot Springs 
TTITLE6=Bully Of The Town 
TTITLE7=Darby's Castle 
TTITLE8=I'll Be A Hero 
TTITLE9=Wait A Little Longer 
TTITLE10=Stonin' Around 
TTITLE11=Lay Your Hands On Me (And Heal Me) 
TTITLE12=January, April And Me 
TTITLE13=Travelin' Light 
TTITLE14=You've Really Got A Hold On Me 
TTITLE15=China Nights (Shina No Yoru) 
TTITLE16=The Best Is Yet To Come 
TTITLE17=(Drinkin' Beer And) Singing A Country Song 
TTITLE18=Chick Inspector (That's Where My Money Goes) 
TTITLE19=She Called Me Baby 
TTITLE20=For The Life Of Me 
TTITLE21=Old Bob Burton 
TTITLE22=The Last Blues Song 
TTITLE23=Born In Country Music 
TTITLE24=Room Full Of Roses 
TTITLE25=Been There People 
TTITLE26=Country Music Man 
TTITLE27=Lazy Bones 
EXTD=
EXTT0=
EXTT1=
EXTT2=
EXTT3=
EXTT4=
EXTT5=
EXTT6=
EXTT7=
EXTT8=
EXTT9=
EXTT10=
EXTT11=
EXTT12=
EXTT13=
EXTT14=
EXTT15=
EXTT16=
EXTT17=
EXTT18=
EXTT19=
EXTT20=
EXTT21=
EXTT22=
EXTT23=
EXTT24=
EXTT25=
EXTT26=
EXTT27=
PLAYORDER=
